<svg width="941" height="918" viewBox="0 0 941 918" fill="none" xmlns="http://www.w3.org/2000/svg">
<path d="M213.555 717.09C213.555 722.704 211.549 727.417 207.539 731.227C203.729 735.237 199.017 737.242 193.402 737.242H73.0898C69.2799 737.443 66.0716 738.345 63.4648 739.949C61.0586 741.353 59.2539 743.057 58.0508 745.062C56.8477 746.867 56.2461 748.772 56.2461 750.777C56.2461 752.783 56.8477 754.788 58.0508 756.793C59.2539 758.598 61.0586 760.302 63.4648 761.906C66.0716 763.31 69.2799 764.112 73.0898 764.312H158.512C172.548 764.714 184.078 768.022 193.102 774.238C202.326 780.254 208.842 787.272 212.652 795.293C216.663 803.113 218.668 811.134 218.668 819.355C218.668 827.376 216.663 835.397 212.652 843.418C208.642 851.238 202.125 858.257 193.102 864.473C184.078 870.488 172.548 873.496 158.512 873.496H156.707C155.504 873.697 154.301 873.797 153.098 873.797H39.4023C33.7878 873.797 28.9753 871.892 24.9648 868.082C21.1549 864.072 19.25 859.259 19.25 853.645C19.25 848.03 21.2552 843.318 25.2656 839.508C29.0755 835.497 33.7878 833.492 39.4023 833.492H160.316C164.126 833.693 167.234 832.991 169.641 831.387C172.247 829.783 174.152 827.978 175.355 825.973C176.559 823.767 177.16 821.561 177.16 819.355C177.16 817.952 176.559 816.047 175.355 813.641C174.152 811.034 172.247 808.928 169.641 807.324C167.234 805.72 164.126 804.818 160.316 804.617H74.8945C60.8581 804.216 49.2279 801.008 40.0039 794.992C30.9805 788.977 24.4635 782.159 20.4531 774.539C16.6432 766.719 14.7383 758.798 14.7383 750.777C14.7383 742.957 16.7435 735.237 20.7539 727.617C24.7643 719.797 31.2812 712.879 40.3047 706.863C49.3281 700.848 60.8581 697.639 74.8945 697.238H76.6992C77.9023 697.038 79.1055 696.938 80.3086 696.938H193.402C199.017 696.938 203.729 698.943 207.539 702.953C211.549 706.763 213.555 711.475 213.555 717.09ZM320.031 827.777C320.031 822.163 321.936 817.451 325.746 813.641C329.757 809.63 334.569 807.625 340.184 807.625H386.203L378.383 785.367C375.174 777.146 371.966 769.426 368.758 762.207C365.75 754.788 362.241 748.07 358.23 742.055C354.621 736.039 350.51 732.831 345.898 732.43C341.086 732.831 336.775 736.039 332.965 742.055C329.155 748.07 325.646 754.788 322.438 762.207C319.43 769.426 316.322 777.146 313.113 785.367L284.539 863.57C282.534 867.781 279.927 871.29 276.719 874.098C273.711 876.704 269.099 878.008 262.883 878.008C257.068 878.008 252.255 876.003 248.445 871.992C244.836 867.982 243.232 863.169 243.633 857.555C243.833 854.948 244.435 852.542 245.438 850.336L278.523 764.914C287.747 742.456 296.971 724.309 306.195 710.473C315.219 696.837 328.453 689.919 345.898 689.719C363.143 689.919 376.277 696.837 385.301 710.473C394.525 723.908 403.749 742.055 412.973 764.914L446.059 850.336C447.061 852.542 447.663 854.948 447.863 857.555C448.264 863.169 446.56 867.982 442.75 871.992C439.141 876.003 434.428 878.008 428.613 878.008C421.996 878.008 417.083 876.704 413.875 874.098C410.867 871.29 408.361 867.781 406.355 863.57L400.641 847.93H340.184C334.569 847.93 329.857 845.924 326.047 841.914C322.036 838.104 320.031 833.392 320.031 827.777ZM622.918 873.797H505.012C499.397 873.596 494.685 871.491 490.875 867.48C487.266 863.47 485.461 858.658 485.461 853.043C486.464 841.012 492.98 834.495 505.012 833.492H612.691C620.311 833.091 626.628 830.184 631.641 824.77C636.654 819.355 640.263 813.24 642.469 806.422C644.875 799.404 646.078 792.285 646.078 785.066C646.078 777.848 644.875 770.93 642.469 764.312C640.263 757.495 636.654 751.379 631.641 745.965C626.628 740.551 620.311 737.643 612.691 737.242H532.684C528.874 737.042 525.665 737.743 523.059 739.348C520.652 740.952 518.848 742.857 517.645 745.062C516.441 747.068 515.84 749.173 515.84 751.379C515.84 752.783 516.441 754.788 517.645 757.395C518.848 759.801 520.652 761.806 523.059 763.41C525.665 765.014 528.874 765.917 532.684 766.117H609.684C615.298 766.117 620.01 768.122 623.82 772.133C627.831 775.943 629.836 780.655 629.836 786.27C629.836 791.884 627.931 796.697 624.121 800.707C620.111 804.517 615.298 806.422 609.684 806.422H534.488C520.452 806.021 508.822 802.812 499.598 796.797C490.574 790.581 484.057 783.562 480.047 775.742C476.237 767.721 474.332 759.6 474.332 751.379C474.332 743.358 476.337 735.438 480.348 727.617C484.358 719.596 490.875 712.578 499.898 706.562C508.922 700.346 520.452 697.238 534.488 697.238H536.293C537.496 697.038 538.699 696.938 539.902 696.938H622.918C636.954 697.74 648.484 703.154 657.508 713.18C666.732 723.005 673.249 734.134 677.059 746.566C681.069 758.999 683.074 771.832 683.074 785.066C683.074 798.301 681.069 811.234 677.059 823.867C673.048 836.5 666.531 847.829 657.508 857.855C648.484 867.681 636.954 872.995 622.918 873.797ZM864.746 764.312C868.556 764.112 871.664 763.31 874.07 761.906C876.677 760.302 878.582 758.497 879.785 756.492C880.988 754.487 881.59 752.382 881.59 750.176C881.59 748.171 880.988 746.165 879.785 744.16C878.582 742.155 876.677 740.451 874.07 739.047C871.664 737.443 868.556 736.54 864.746 736.34H774.512C770.702 736.54 767.493 737.443 764.887 739.047C762.48 740.451 760.676 742.155 759.473 744.16C758.27 746.165 757.668 748.171 757.668 750.176C757.668 752.382 758.27 754.487 759.473 756.492C760.676 758.497 762.48 760.302 764.887 761.906C767.493 763.31 770.702 764.112 774.512 764.312C774.712 764.312 774.913 764.312 775.113 764.312H864.145C864.345 764.312 864.546 764.312 864.746 764.312ZM865.949 833.492C869.759 833.292 872.867 832.389 875.273 830.785C877.88 829.181 879.785 827.376 880.988 825.371C882.191 823.366 882.793 821.26 882.793 819.055C882.793 816.849 882.191 814.743 880.988 812.738C879.785 810.733 877.88 808.928 875.273 807.324C872.867 805.72 869.759 804.818 865.949 804.617H773.309C769.499 804.818 766.29 805.72 763.684 807.324C761.277 808.928 759.473 810.733 758.27 812.738C757.066 814.743 756.465 816.849 756.465 819.055C756.465 821.26 757.066 823.366 758.27 825.371C759.473 827.376 761.277 829.181 763.684 830.785C766.29 832.389 769.499 833.292 773.309 833.492H865.949ZM918.586 794.691C922.396 802.712 924.301 810.833 924.301 819.055C924.301 826.875 922.296 834.796 918.285 842.816C914.275 850.637 907.758 857.655 898.734 863.871C889.711 869.887 878.181 873.095 864.145 873.496C861.738 873.697 859.934 873.797 858.73 873.797H780.527C779.324 873.797 777.52 873.697 775.113 873.496C761.077 873.095 749.547 869.887 740.523 863.871C731.5 857.655 724.983 850.637 720.973 842.816C716.962 834.796 714.957 826.875 714.957 819.055C714.957 810.833 716.962 802.712 720.973 794.691C722.978 790.681 725.685 786.871 729.094 783.262C726.286 780.254 723.98 776.945 722.176 773.336C718.165 765.716 716.16 757.996 716.16 750.176C716.16 742.355 718.065 734.535 721.875 726.715C725.885 718.895 732.402 712.077 741.426 706.262C750.65 700.246 762.28 697.138 776.316 696.938H862.941C876.978 697.138 888.508 700.246 897.531 706.262C906.755 712.077 913.272 718.895 917.082 726.715C921.092 734.535 923.098 742.355 923.098 750.176C923.098 757.996 921.092 765.716 917.082 773.336C915.277 776.945 912.971 780.254 910.164 783.262C913.573 786.871 916.38 790.681 918.586 794.691Z" fill="#026873"/>
<path d="M612.824 25.0742C637.394 49.538 650.439 80.9442 663.094 111.591C687.747 171.293 709.708 232.284 732.368 292.919C740.729 315.29 748.383 337.998 755.525 360.852C764.323 389.005 754.998 410.478 731.172 419.16C705.971 428.344 681.573 416.066 672.415 390.274C638.912 295.919 605.369 201.579 571.323 107.449C567.459 96.767 561.232 87.1706 547.556 87.1183C533.959 87.0662 524.151 92.721 519.502 105.776C494.438 176.16 469.848 246.74 445.218 317.302C443.99 320.818 443.916 324.797 443.055 330.101C461.237 330.101 477.914 329.223 494.486 330.255C559.908 334.332 610.51 387.709 608.79 455.011C607.139 519.581 561.772 574.488 496.096 575.804C475.591 576.215 455.066 575.52 434.562 575.947C398.947 576.688 363.341 578.689 327.731 578.703C293.553 578.717 259.37 577.018 225.199 575.791C210.412 575.26 193.945 560.281 191.496 545.875C187.353 521.512 196.066 496.318 212.058 490.268C221.617 486.652 232.076 484.048 242.146 483.985C322.284 483.487 402.426 483.738 482.566 483.632C487.687 483.625 493.131 483.563 497.866 481.799C512.826 476.228 521.862 463.881 520.405 452.396C518.487 437.268 501.638 422.759 483.97 422.408C457.743 421.886 431.5 422.264 405.263 422.262C370.44 422.26 335.57 423.498 300.805 421.963C251.086 419.767 212.33 396.48 189.542 347.485C166.296 297.505 187.788 227.317 233.433 200.088C256.612 186.26 280.862 179.08 307.505 179.319C328.317 179.505 349.143 177.466 369.969 176.555C373.752 176.39 377.656 176.393 381.341 177.19C395.619 180.279 402.712 175.364 408.971 161.866C427.54 121.817 445.592 81.3709 466.493 42.7288C481.333 15.2906 506.971 3.87538 536.335 1.20203C564.539 -1.36573 589.336 7.13427 612.824 25.0742ZM268.763 303.245C274.452 310.87 279.023 323.286 286.05 325.172C303.208 329.779 321.492 330.394 339.345 330.616C344.081 330.675 351.121 324.56 353.255 319.435C359.534 304.356 363.882 288.351 370.699 267.455C340.589 270.058 313.818 271.156 287.448 275.233C276.414 276.939 268.643 286.958 268.763 303.245Z" fill="#CD3030"/>
</svg>
