<svg width="36" height="36" viewBox="0 0 36 36" fill="none" xmlns="http://www.w3.org/2000/svg">
<g clip-path="url(#clip0_15_15)">
<path d="M26.865 1.55637C28.3901 3.07481 29.1997 5.02416 29.9852 6.92636C31.5154 10.632 32.8785 14.4176 34.285 18.1812C34.804 19.5698 35.279 20.9792 35.7223 22.3978C36.2684 24.1452 35.6896 25.478 34.2108 26.0169C32.6465 26.5869 31.1322 25.8248 30.5638 24.2239C28.4843 18.3674 26.4023 12.5118 24.2891 6.6693C24.0493 6.00626 23.6628 5.41063 22.8139 5.40738C21.9699 5.40415 21.3612 5.75513 21.0726 6.56542C19.5169 10.9341 17.9906 15.3149 16.4619 19.6946C16.3857 19.9129 16.3811 20.1599 16.3277 20.489C17.4562 20.489 18.4913 20.4346 19.5199 20.4987C23.5806 20.7517 26.7214 24.0647 26.6146 28.2421C26.5122 32.2499 23.6963 35.6579 19.6199 35.7396C18.3471 35.7651 17.0732 35.722 15.8005 35.7484C13.5899 35.7944 11.3799 35.9187 9.16961 35.9195C7.04823 35.9204 4.92654 35.815 2.80553 35.7388C1.88774 35.7058 0.865648 34.7761 0.71362 33.8819C0.456521 32.3697 0.997277 30.806 1.9899 30.4305C2.58324 30.206 3.23238 30.0444 3.85744 30.0405C8.83152 30.0096 13.8058 30.0251 18.7801 30.0186C19.0979 30.0182 19.4358 30.0143 19.7297 29.9048C20.6583 29.559 21.2191 28.7927 21.1287 28.0798C21.0096 27.1408 19.9638 26.2403 18.8672 26.2185C17.2393 26.1861 15.6104 26.2096 13.9819 26.2094C11.8205 26.2093 9.65614 26.2861 7.49837 26.1908C4.4123 26.0545 2.00678 24.6092 0.592337 21.5681C-0.850511 18.4659 0.483522 14.1094 3.3166 12.4193C4.75533 11.561 6.26048 11.1154 7.91421 11.1302C9.20598 11.1417 10.4987 11.0151 11.7913 10.9586C12.0261 10.9484 12.2684 10.9485 12.4971 10.998C13.3834 11.1898 13.8236 10.8847 14.2121 10.0469C15.3646 7.56108 16.4851 5.05065 17.7824 2.65217C18.7036 0.94911 20.2949 0.240577 22.1174 0.074645C23.868 -0.0847333 25.4072 0.442853 26.865 1.55637ZM5.50953 18.8221C5.8626 19.2954 6.14637 20.0661 6.5825 20.1831C7.64748 20.469 8.78237 20.5073 9.89046 20.521C10.1844 20.5247 10.6214 20.1452 10.7538 19.827C11.1436 18.8911 11.4134 17.8977 11.8366 16.6007C9.96768 16.7623 8.30605 16.8304 6.66926 17.0835C5.98443 17.1893 5.50205 17.8112 5.50953 18.8221Z" fill="#CD3030"/>
</g>
<defs>
<clipPath id="clip0_15_15">
<rect width="36" height="36" fill="white"/>
</clipPath>
</defs>
</svg>
