<svg width="1362" height="360" viewBox="0 0 1362 360" fill="none" xmlns="http://www.w3.org/2000/svg">
<path d="M613.848 134.268C613.848 139.627 611.934 144.125 608.105 147.762C604.469 151.59 599.971 153.504 594.611 153.504H479.768C476.131 153.695 473.068 154.557 470.58 156.088C468.283 157.428 466.561 159.055 465.412 160.969C464.264 162.691 463.689 164.51 463.689 166.424C463.689 168.338 464.264 170.252 465.412 172.166C466.561 173.889 468.283 175.516 470.58 177.047C473.068 178.387 476.131 179.152 479.768 179.344H561.307C574.705 179.727 585.711 182.885 594.324 188.818C603.129 194.561 609.35 201.26 612.986 208.916C616.814 216.381 618.729 224.037 618.729 231.885C618.729 239.541 616.814 247.197 612.986 254.854C609.158 262.318 602.938 269.018 594.324 274.951C585.711 280.693 574.705 283.564 561.307 283.564H559.584C558.436 283.756 557.287 283.852 556.139 283.852H447.611C442.252 283.852 437.658 282.033 433.83 278.396C430.193 274.568 428.375 269.975 428.375 264.615C428.375 259.256 430.289 254.758 434.117 251.121C437.754 247.293 442.252 245.379 447.611 245.379H563.029C566.666 245.57 569.633 244.9 571.93 243.369C574.418 241.838 576.236 240.115 577.385 238.201C578.533 236.096 579.107 233.99 579.107 231.885C579.107 230.545 578.533 228.727 577.385 226.43C576.236 223.941 574.418 221.932 571.93 220.4C569.633 218.869 566.666 218.008 563.029 217.816H481.49C468.092 217.434 456.99 214.371 448.186 208.629C439.572 202.887 433.352 196.379 429.523 189.105C425.887 181.641 424.068 174.08 424.068 166.424C424.068 158.959 425.982 151.59 429.811 144.316C433.639 136.852 439.859 130.248 448.473 124.506C457.086 118.764 468.092 115.701 481.49 115.318H483.213C484.361 115.127 485.51 115.031 486.658 115.031H594.611C599.971 115.031 604.469 116.945 608.105 120.773C611.934 124.41 613.848 128.908 613.848 134.268ZM715.484 239.924C715.484 234.564 717.303 230.066 720.939 226.43C724.768 222.602 729.361 220.688 734.721 220.688H778.648L771.184 199.441C768.121 191.594 765.059 184.225 761.996 177.334C759.125 170.252 755.775 163.84 751.947 158.098C748.502 152.355 744.578 149.293 740.176 148.91C735.582 149.293 731.467 152.355 727.83 158.098C724.193 163.84 720.844 170.252 717.781 177.334C714.91 184.225 711.943 191.594 708.881 199.441L681.605 274.09C679.691 278.109 677.203 281.459 674.141 284.139C671.27 286.627 666.867 287.871 660.934 287.871C655.383 287.871 650.789 285.957 647.152 282.129C643.707 278.301 642.176 273.707 642.559 268.348C642.75 265.859 643.324 263.562 644.281 261.457L675.863 179.918C684.668 158.48 693.473 141.158 702.277 127.951C710.891 114.936 723.523 108.332 740.176 108.141C756.637 108.332 769.174 114.936 777.787 127.951C786.592 140.775 795.396 158.098 804.201 179.918L835.783 261.457C836.74 263.562 837.314 265.859 837.506 268.348C837.889 273.707 836.262 278.301 832.625 282.129C829.18 285.957 824.682 287.871 819.131 287.871C812.814 287.871 808.125 286.627 805.062 284.139C802.191 281.459 799.799 278.109 797.885 274.09L792.43 259.16H734.721C729.361 259.16 724.863 257.246 721.227 253.418C717.398 249.781 715.484 245.283 715.484 239.924ZM1004.6 283.852H892.057C886.697 283.66 882.199 281.65 878.562 277.822C875.117 273.994 873.395 269.4 873.395 264.041C874.352 252.557 880.572 246.336 892.057 245.379H994.842C1002.12 244.996 1008.14 242.221 1012.93 237.053C1017.71 231.885 1021.16 226.047 1023.27 219.539C1025.56 212.84 1026.71 206.045 1026.71 199.154C1026.71 192.264 1025.56 185.66 1023.27 179.344C1021.16 172.836 1017.71 166.998 1012.93 161.83C1008.14 156.662 1002.12 153.887 994.842 153.504H918.471C914.834 153.312 911.771 153.982 909.283 155.514C906.986 157.045 905.264 158.863 904.115 160.969C902.967 162.883 902.393 164.893 902.393 166.998C902.393 168.338 902.967 170.252 904.115 172.74C905.264 175.037 906.986 176.951 909.283 178.482C911.771 180.014 914.834 180.875 918.471 181.066H991.971C997.33 181.066 1001.83 182.98 1005.46 186.809C1009.29 190.445 1011.21 194.943 1011.21 200.303C1011.21 205.662 1009.39 210.256 1005.75 214.084C1001.92 217.721 997.33 219.539 991.971 219.539H920.193C906.795 219.156 895.693 216.094 886.889 210.352C878.275 204.418 872.055 197.719 868.227 190.254C864.59 182.598 862.771 174.846 862.771 166.998C862.771 159.342 864.686 151.781 868.514 144.316C872.342 136.66 878.562 129.961 887.176 124.219C895.789 118.285 906.795 115.318 920.193 115.318H921.916C923.064 115.127 924.213 115.031 925.361 115.031H1004.6C1018 115.797 1029.01 120.965 1037.62 130.535C1046.43 139.914 1052.65 150.537 1056.28 162.404C1060.11 174.271 1062.03 186.521 1062.03 199.154C1062.03 211.787 1060.11 224.133 1056.28 236.191C1052.46 248.25 1046.23 259.064 1037.62 268.635C1029.01 278.014 1018 283.086 1004.6 283.852ZM1235.44 179.344C1239.08 179.152 1242.04 178.387 1244.34 177.047C1246.83 175.516 1248.65 173.793 1249.79 171.879C1250.94 169.965 1251.52 167.955 1251.52 165.85C1251.52 163.936 1250.94 162.021 1249.79 160.107C1248.65 158.193 1246.83 156.566 1244.34 155.227C1242.04 153.695 1239.08 152.834 1235.44 152.643H1149.31C1145.67 152.834 1142.61 153.695 1140.12 155.227C1137.82 156.566 1136.1 158.193 1134.95 160.107C1133.8 162.021 1133.23 163.936 1133.23 165.85C1133.23 167.955 1133.8 169.965 1134.95 171.879C1136.1 173.793 1137.82 175.516 1140.12 177.047C1142.61 178.387 1145.67 179.152 1149.31 179.344C1149.5 179.344 1149.69 179.344 1149.88 179.344H1234.87C1235.06 179.344 1235.25 179.344 1235.44 179.344ZM1236.59 245.379C1240.22 245.188 1243.19 244.326 1245.49 242.795C1247.98 241.264 1249.79 239.541 1250.94 237.627C1252.09 235.713 1252.67 233.703 1252.67 231.598C1252.67 229.492 1252.09 227.482 1250.94 225.568C1249.79 223.654 1247.98 221.932 1245.49 220.4C1243.19 218.869 1240.22 218.008 1236.59 217.816H1148.16C1144.52 218.008 1141.46 218.869 1138.97 220.4C1136.67 221.932 1134.95 223.654 1133.8 225.568C1132.65 227.482 1132.08 229.492 1132.08 231.598C1132.08 233.703 1132.65 235.713 1133.8 237.627C1134.95 239.541 1136.67 241.264 1138.97 242.795C1141.46 244.326 1144.52 245.188 1148.16 245.379H1236.59ZM1286.83 208.342C1290.47 215.998 1292.29 223.75 1292.29 231.598C1292.29 239.062 1290.37 246.623 1286.54 254.279C1282.72 261.744 1276.5 268.443 1267.88 274.377C1259.27 280.119 1248.26 283.182 1234.87 283.564C1232.57 283.756 1230.85 283.852 1229.7 283.852H1155.05C1153.9 283.852 1152.18 283.756 1149.88 283.564C1136.48 283.182 1125.48 280.119 1116.86 274.377C1108.25 268.443 1102.03 261.744 1098.2 254.279C1094.37 246.623 1092.46 239.062 1092.46 231.598C1092.46 223.75 1094.37 215.998 1098.2 208.342C1100.12 204.514 1102.7 200.877 1105.95 197.432C1103.27 194.561 1101.07 191.402 1099.35 187.957C1095.52 180.684 1093.61 173.314 1093.61 165.85C1093.61 158.385 1095.43 150.92 1099.06 143.455C1102.89 135.99 1109.11 129.482 1117.72 123.932C1126.53 118.189 1137.63 115.223 1151.03 115.031H1233.72C1247.12 115.223 1258.12 118.189 1266.73 123.932C1275.54 129.482 1281.76 135.99 1285.4 143.455C1289.22 150.92 1291.14 158.385 1291.14 165.85C1291.14 173.314 1289.22 180.684 1285.4 187.957C1283.67 191.402 1281.47 194.561 1278.79 197.432C1282.05 200.877 1284.73 204.514 1286.83 208.342Z" fill="#026873"/>
<g clip-path="url(#clip0_15_11)">
<path d="M268.65 15.5633C283.9 30.7477 291.997 50.2412 299.851 69.2633C315.153 106.32 328.784 144.176 342.849 181.812C348.039 195.697 352.789 209.792 357.222 223.977C362.683 241.451 356.895 254.779 342.107 260.168C326.464 265.868 311.321 258.248 305.637 242.239C284.842 183.674 264.022 125.118 242.89 66.6926C240.492 60.0622 236.627 54.1059 228.138 54.0734C219.698 54.0411 213.611 57.551 210.725 65.6538C195.168 109.341 179.906 153.149 164.618 196.946C163.856 199.128 163.81 201.598 163.276 204.89C174.561 204.89 184.912 204.345 195.198 204.986C235.805 207.516 267.213 240.647 266.145 282.421C265.121 322.498 236.962 356.579 196.198 357.396C183.47 357.651 170.731 357.219 158.004 357.484C135.898 357.944 113.798 359.186 91.6951 359.195C70.4813 359.204 49.2644 358.149 28.0543 357.388C18.8764 357.058 8.6555 347.76 7.13523 338.819C4.56423 323.697 9.97179 308.059 19.898 304.304C25.8314 302.06 32.3228 300.444 38.5734 300.405C88.3142 300.095 138.057 300.251 187.8 300.185C190.978 300.181 194.357 300.142 197.296 299.048C206.582 295.59 212.19 287.926 211.286 280.798C210.095 271.408 199.637 262.402 188.671 262.184C172.392 261.86 156.103 262.095 139.818 262.094C118.204 262.092 96.5604 262.861 74.9827 261.908C44.1221 260.545 20.0668 246.091 5.92239 215.68C-8.50609 184.658 4.83424 141.093 33.165 124.192C47.5523 115.61 62.6038 111.153 79.1412 111.301C92.0588 111.417 104.986 110.151 117.912 109.586C120.26 109.483 122.683 109.485 124.97 109.98C133.833 111.897 138.235 108.847 142.12 100.468C153.645 75.6105 164.85 50.5061 177.823 26.5213C187.035 9.49074 202.948 2.40541 221.173 0.746083C238.68 -0.8477 254.071 4.42816 268.65 15.5633ZM55.0943 188.221C58.6251 192.954 61.4627 200.66 65.8241 201.831C76.4738 204.69 87.8228 205.072 98.9036 205.21C101.843 205.246 106.213 201.451 107.537 198.27C111.435 188.911 114.133 178.976 118.365 166.006C99.6758 167.622 83.0596 168.304 66.6916 170.834C59.8433 171.893 55.0195 178.112 55.0943 188.221Z" fill="#CD3030"/>
</g>
<defs>
<clipPath id="clip0_15_11">
<rect width="360" height="360" fill="white"/>
</clipPath>
</defs>
</svg>
