<svg width="580" height="580" viewBox="0 0 580 580" fill="none" xmlns="http://www.w3.org/2000/svg">
<path d="M432.824 25.0742C457.394 49.538 470.439 80.9442 483.094 111.591C507.747 171.293 529.708 232.284 552.368 292.919C560.729 315.29 568.383 337.998 575.525 360.852C584.323 389.005 574.998 410.478 551.172 419.16C525.97 428.344 501.573 416.066 492.415 390.274C458.912 295.919 425.369 201.579 391.323 107.449C387.459 96.767 381.232 87.1706 367.555 87.1183C353.959 87.0662 344.151 92.721 339.502 105.776C314.438 176.16 289.848 246.74 265.218 317.302C263.99 320.818 263.916 324.797 263.055 330.101C281.237 330.101 297.913 329.223 314.486 330.255C379.908 334.332 430.51 387.709 428.79 455.011C427.139 519.581 381.772 574.488 316.096 575.804C295.591 576.215 275.066 575.52 254.562 575.947C218.947 576.688 183.341 578.689 147.731 578.703C113.553 578.717 79.3704 577.018 45.1986 575.791C30.412 575.26 13.945 560.281 11.4956 545.875C7.35348 521.512 16.0657 496.318 32.0579 490.268C41.6172 486.652 52.0756 484.048 62.1461 483.985C142.284 483.487 222.426 483.738 302.566 483.632C307.687 483.625 313.131 483.563 317.866 481.799C332.826 476.228 341.862 463.881 340.405 452.396C338.487 437.268 321.638 422.759 303.97 422.408C277.743 421.886 251.5 422.264 225.263 422.262C190.44 422.26 155.57 423.498 120.805 421.963C71.0855 419.767 32.3299 396.48 9.54163 347.485C-13.7043 297.505 7.7885 227.317 53.4325 200.088C76.612 186.26 100.862 179.08 127.505 179.319C148.317 179.505 169.143 177.466 189.969 176.555C193.752 176.39 197.656 176.393 201.341 177.19C215.619 180.279 222.712 175.364 228.971 161.866C247.54 121.817 265.592 81.3709 286.493 42.7288C301.333 15.2906 326.971 3.87538 356.335 1.20203C384.539 -1.36573 409.336 7.13427 432.824 25.0742ZM88.763 303.245C94.4515 310.87 99.0233 323.286 106.05 325.172C123.208 329.779 141.492 330.394 159.345 330.616C164.081 330.675 171.12 324.56 173.255 319.435C179.534 304.356 183.882 288.351 190.699 267.455C160.589 270.058 133.818 271.156 107.448 275.233C96.4143 276.939 88.6426 286.958 88.763 303.245Z" fill="#CD3030"/>
</svg>
