<svg width="250" height="300" viewBox="0 0 250 300" fill="none" xmlns="http://www.w3.org/2000/svg">
<g clip-path="url(#clip0_15_4)">
<path d="M108.045 241.894C108.045 185.85 108.045 129.934 108.045 73.8343C104.079 73.8343 100.259 73.9584 96.4796 73.8039C91.386 73.5957 87.0813 74.3607 82.6731 75.6968C56.5527 83.6138 30.2905 91.4031 4.07468 99.2341C3.03307 99.5452 1.97824 99.8443 0.510497 100.271C0.510497 99.6615 0.510408 99.2601 0.510497 98.8587C0.511814 92.8867 0.547657 86.9146 0.474774 80.9429C0.464601 80.1093 0.924878 79.6555 2.33174 79.2362C27.9934 71.5885 53.6166 63.9056 79.2774 56.2572C80.2045 55.9809 81.4308 55.8715 82.5201 55.8674C90.9189 55.8362 99.3183 55.8502 107.882 55.8502C107.882 43.1263 107.882 30.4866 107.882 17.7405C104.658 17.7405 101.502 17.7405 98.1741 17.7405C98.1741 11.7797 98.1741 5.92449 98.1741 0.0043335C115.909 0.0043335 133.592 0.0043335 151.407 0.0043335C151.407 5.86499 151.407 11.6897 151.407 17.6787C148.462 17.6787 145.499 17.6787 142.404 17.6787C142.404 30.4475 142.404 43.0526 142.404 55.7823C143.199 55.8051 143.977 55.8464 144.756 55.8468C152.353 55.8517 159.951 55.8218 167.547 55.8749C168.936 55.8846 170.479 56.0761 171.679 56.4331C197.001 63.9658 222.283 71.5352 247.578 79.0929C248.651 79.4134 249.543 79.6657 249.532 80.5007C249.447 86.8563 249.485 93.2124 249.478 99.5683C249.478 99.6851 249.389 99.8019 249.277 100.08C247.196 99.4706 245.221 98.9022 243.263 98.318C216.615 90.3671 189.978 82.4059 163.297 74.4856C161.962 74.0892 160.253 73.8846 158.704 73.8631C153.33 73.7886 147.95 73.8343 142.263 73.8343C142.263 74.4844 142.263 75.0239 142.263 75.5635C142.263 148.336 142.257 221.109 142.312 293.882C142.313 295.008 141.771 295.64 139.775 296.154C135.753 297.189 131.859 298.366 127.979 299.544C126.637 299.952 125.631 300.005 124.209 299.571C119.631 298.173 114.974 296.842 110.271 295.562C108.62 295.113 107.993 294.602 107.997 293.593C108.067 276.403 108.046 259.212 108.045 241.894Z" fill="#090909"/>
<path d="M195.496 260.068C195.496 266.424 195.476 272.651 195.522 278.879C195.527 279.59 195.228 280.038 193.935 280.408C183.342 283.441 172.793 286.516 162.228 289.575C162.031 289.632 161.79 289.648 161.418 289.708C161.418 221.568 161.418 153.485 161.418 85.2297C163.726 85.8847 165.862 86.4785 167.977 87.0926C194.369 94.757 220.749 102.433 247.168 110.072C248.868 110.563 249.536 111.082 249.535 112.129C249.478 162.419 249.479 212.708 249.529 262.998C249.53 263.932 249.013 264.43 247.439 264.879C236.85 267.905 226.32 270.987 215.431 274.149C215.431 248.063 215.431 222.131 215.431 196.102C208.686 196.102 202.218 196.102 195.496 196.102C195.496 217.398 195.496 238.669 195.496 260.068ZM195.493 141.681C195.493 154.11 195.493 166.539 195.493 179.01C202.226 179.01 208.642 179.01 215.138 179.01C215.197 178.741 215.281 178.537 215.281 178.332C215.287 159.49 215.299 140.647 215.219 121.804C215.217 121.352 214.387 120.721 213.6 120.48C208.395 118.885 203.099 117.371 197.826 115.836C197.16 115.642 196.459 115.482 195.493 115.233C195.493 124.122 195.493 132.774 195.493 141.681Z" fill="#090909"/>
<path d="M34.7161 213.737C34.7165 226.663 34.7383 239.46 34.6734 252.257C34.6686 253.195 35.1999 253.694 36.7858 254.134C42.609 255.749 48.3468 257.448 54.3963 259.196C54.4883 258.742 54.606 258.432 54.6061 258.123C54.6146 229.542 54.6078 200.961 54.6476 172.38C54.6487 171.594 54.1766 171.163 52.8741 170.777C36.1229 165.81 19.4169 160.8 2.65361 155.844C1.01117 155.358 0.462781 154.83 0.467808 153.847C0.538088 140.111 0.536053 126.375 0.472236 112.639C0.467868 111.7 1.0203 111.211 2.58725 110.758C30.5765 102.662 58.5301 94.5329 86.4949 86.4142C87.1111 86.2353 87.7693 86.0959 88.5965 85.8914C88.5965 106.43 88.5965 126.838 88.5965 147.404C86.36 146.75 84.2454 146.144 82.1533 145.518C73.585 142.953 65.0458 140.361 56.4377 137.833C55.017 137.415 54.5657 136.963 54.575 136.131C54.6453 129.861 54.6129 123.59 54.6125 117.319C54.6125 116.897 54.6125 116.474 54.6125 115.909C53.9216 116.041 53.4066 116.102 52.9623 116.23C47.3872 117.837 41.7918 119.425 36.2899 121.098C35.5241 121.331 34.7928 121.987 34.7864 122.449C34.6899 129.402 34.7422 136.356 34.6826 143.309C34.6759 144.095 35.163 144.511 36.4733 144.901C53.2856 149.899 70.0526 154.938 86.861 159.939C88.1194 160.313 88.7478 160.674 88.747 161.493C88.7045 203.767 88.7103 246.041 88.7111 288.315C88.7111 288.527 88.7111 288.739 88.7111 289.129C87.8889 288.937 87.2364 288.814 86.6376 288.641C58.4487 280.47 30.273 272.287 2.0572 264.142C0.479925 263.687 0.504279 263.091 0.504608 262.357C0.517115 234.373 0.51514 206.389 0.51508 178.406C0.51505 174.023 0.51505 169.64 0.51505 165.028C3.06743 165.791 5.30293 166.46 7.53924 167.128C15.8995 169.626 24.2416 172.14 32.6373 174.605C34.1625 175.052 34.7689 175.549 34.7635 176.497C34.6933 188.868 34.7165 201.239 34.7161 213.737Z" fill="#090909"/>
</g>
<defs>
<clipPath id="clip0_15_4">
<rect width="250" height="300" fill="white"/>
</clipPath>
</defs>
</svg>
